<svg width="40" height="39" viewBox="0 0 40 39" fill="none" xmlns="http://www.w3.org/2000/svg">
<g clip-path="url(#clip0_1_89)">
<path d="M39.3438 19.5C39.3438 8.73044 30.6133 0 19.8438 0C9.07419 0 0.34375 8.73044 0.34375 19.5C0.34375 29.2329 7.47458 37.3002 16.7969 38.7631V25.1367H11.8457V19.5H16.7969V15.2039C16.7969 10.3167 19.7082 7.61719 24.1623 7.61719C26.2951 7.61719 28.5273 7.99805 28.5273 7.99805V12.7969H26.0685C23.6463 12.7969 22.8906 14.3001 22.8906 15.8438V19.5H28.2988L27.4343 25.1367H22.8906V38.7631C32.2129 37.3002 39.3438 29.2329 39.3438 19.5Z" fill="#1877F2"/>
<path d="M27.4328 25.1367L28.2974 19.5H22.8892V15.8438C22.8892 14.3017 23.6448 12.7969 26.0671 12.7969H28.5259V7.99805C28.5259 7.99805 26.2944 7.61719 24.1609 7.61719C19.7067 7.61719 16.7954 10.3167 16.7954 15.2039V19.5H11.8442V25.1367H16.7954V38.7631C18.8144 39.079 20.8702 39.079 22.8892 38.7631V25.1367H27.4328Z" fill="white"/>
</g>
<defs>
<clipPath id="clip0_1_89">
<rect width="39" height="39" fill="white" transform="translate(0.34375)"/>
</clipPath>
</defs>
</svg>
