<svg width="131" height="39" viewBox="0 0 131 39" fill="none" xmlns="http://www.w3.org/2000/svg">
<rect x="0.464844" width="130.536" height="38.6775" rx="5" fill="#0C0D10"/>
<path d="M86.6737 17.6472V19.8555H85.2929V21.3037H86.6737V26.2244C86.6737 27.9047 87.4319 28.5768 89.3395 28.5768C89.6747 28.5768 89.9939 28.5368 90.2733 28.4888V27.0566C90.0339 27.0806 89.8822 27.0966 89.6188 27.0966C88.7648 27.0966 88.3897 26.6965 88.3897 25.7844V21.3037H90.2733V19.8555H88.3897V17.6472H86.6737Z" fill="white"/>
<path d="M95.1327 28.6968C97.6708 28.6968 99.2272 26.9926 99.2272 24.1681C99.2272 21.3597 97.6628 19.6475 95.1327 19.6475C92.5946 19.6475 91.0303 21.3597 91.0303 24.1681C91.0303 26.9926 92.5866 28.6968 95.1327 28.6968ZM95.1327 27.1686C93.6402 27.1686 92.8021 26.0724 92.8021 24.1681C92.8021 22.2799 93.6402 21.1757 95.1327 21.1757C96.6173 21.1757 97.4633 22.2799 97.4633 24.1681C97.4633 26.0644 96.6173 27.1686 95.1327 27.1686Z" fill="white"/>
<path d="M100.559 28.5288H102.275V23.384C102.275 22.1598 103.193 21.3357 104.494 21.3357C104.797 21.3357 105.308 21.3917 105.451 21.4397V19.7435C105.268 19.6955 104.941 19.6715 104.685 19.6715C103.552 19.6715 102.586 20.2956 102.339 21.1517H102.211V19.8155H100.559V28.5288Z" fill="white"/>
<path d="M109.712 21.1117C110.981 21.1117 111.811 21.9998 111.851 23.368H107.461C107.557 22.0078 108.443 21.1117 109.712 21.1117ZM111.843 26.1764C111.524 26.8565 110.814 27.2326 109.776 27.2326C108.403 27.2326 107.517 26.2644 107.461 24.7362V24.6402H113.599V24.0401C113.599 21.3037 112.139 19.6475 109.72 19.6475C107.27 19.6475 105.714 21.4157 105.714 24.2001C105.714 26.9846 107.238 28.6968 109.728 28.6968C111.716 28.6968 113.104 27.7367 113.495 26.1764H111.843Z" fill="white"/>
<path d="M75.4203 25.3111C75.5527 27.4507 77.3313 28.819 79.9785 28.819C82.8077 28.819 84.578 27.3843 84.578 25.0955C84.578 23.2959 83.5688 22.3007 81.1201 21.7285L79.8048 21.4051C78.2495 21.0402 77.6208 20.5509 77.6208 19.6967C77.6208 18.6186 78.597 17.9137 80.0612 17.9137C81.451 17.9137 82.4106 18.6021 82.5843 19.705H84.3878C84.2802 17.6898 82.5099 16.2717 80.086 16.2717C77.4802 16.2717 75.743 17.6898 75.743 19.8211C75.743 21.5792 76.7274 22.6242 78.8865 23.13L80.4252 23.5032C82.0053 23.8764 82.7002 24.4237 82.7002 25.336C82.7002 26.3975 81.6082 27.1687 80.1191 27.1687C78.5225 27.1687 77.414 26.4472 77.2568 25.3111H75.4203Z" fill="white"/>
<path d="M57.6442 19.6715C56.463 19.6715 55.4414 20.2636 54.9146 21.2557H54.7869V19.8155H53.1347V31.4252H54.8507V27.2086H54.9864C55.4414 28.1287 56.4231 28.6728 57.6602 28.6728C59.8551 28.6728 61.2519 26.9365 61.2519 24.1681C61.2519 21.3997 59.8551 19.6715 57.6442 19.6715ZM57.1574 27.1286C55.7207 27.1286 54.8188 25.9924 54.8188 24.1761C54.8188 22.3519 55.7207 21.2157 57.1654 21.2157C58.618 21.2157 59.488 22.3279 59.488 24.1681C59.488 26.0164 58.618 27.1286 57.1574 27.1286Z" fill="white"/>
<path d="M67.2564 19.6715C66.0752 19.6715 65.0536 20.2636 64.5268 21.2557H64.3991V19.8155H62.7469V31.4252H64.4629V27.2086H64.5986C65.0536 28.1287 66.0353 28.6728 67.2724 28.6728C69.4673 28.6728 70.8641 26.9365 70.8641 24.1681C70.8641 21.3997 69.4673 19.6715 67.2564 19.6715ZM66.7696 27.1286C65.3329 27.1286 64.431 25.9924 64.431 24.1761C64.431 22.3519 65.3329 21.2157 66.7776 21.2157C68.2302 21.2157 69.1002 22.3279 69.1002 24.1681C69.1002 26.0164 68.2302 27.1286 66.7696 27.1286Z" fill="white"/>
<path d="M50.0559 28.5288H52.0248L47.7148 16.562H45.7211L41.4111 28.5288H43.3138L44.4141 25.3526H48.9639L50.0559 28.5288ZM46.6228 18.7347H46.7635L48.4924 23.7935H44.8856L46.6228 18.7347Z" fill="white"/>
<path d="M42.5631 7.53575V13.3086H44.6423C46.3583 13.3086 47.352 12.2485 47.352 10.4042C47.352 8.58791 46.3503 7.53575 44.6423 7.53575H42.5631ZM43.457 8.35187H44.5425C45.7357 8.35187 46.4421 9.11199 46.4421 10.4162C46.4421 11.7404 45.7477 12.4925 44.5425 12.4925H43.457V8.35187Z" fill="white"/>
<path d="M50.3953 13.3926C51.6643 13.3926 52.4425 12.5405 52.4425 11.1283C52.4425 9.72408 51.6604 8.86795 50.3953 8.86795C49.1262 8.86795 48.3441 9.72408 48.3441 11.1283C48.3441 12.5405 49.1223 13.3926 50.3953 13.3926ZM50.3953 12.6285C49.649 12.6285 49.23 12.0804 49.23 11.1283C49.23 10.1841 49.649 9.63206 50.3953 9.63206C51.1376 9.63206 51.5606 10.1841 51.5606 11.1283C51.5606 12.0764 51.1376 12.6285 50.3953 12.6285Z" fill="white"/>
<path d="M59.0695 8.95196H58.2115L57.4373 12.2765H57.3695L56.4756 8.95196H55.6535L54.7595 12.2765H54.6957L53.9175 8.95196H53.0475L54.2447 13.3086H55.1267L56.0206 10.1001H56.0885L56.9864 13.3086H57.8763L59.0695 8.95196Z" fill="white"/>
<path d="M60.0576 13.3086H60.9156V10.7602C60.9156 10.0801 61.3187 9.65607 61.9532 9.65607C62.5877 9.65607 62.891 10.0041 62.891 10.7042V13.3086H63.749V10.4882C63.749 9.45204 63.2143 8.86795 62.2445 8.86795C61.5901 8.86795 61.1591 9.15999 60.9475 9.64407H60.8837V8.95196H60.0576V13.3086Z" fill="white"/>
<path d="M65.1003 13.3086H65.9583V7.25171H65.1003V13.3086Z" fill="white"/>
<path d="M69.1852 13.3926C70.4542 13.3926 71.2324 12.5405 71.2324 11.1283C71.2324 9.72408 70.4502 8.86795 69.1852 8.86795C67.9161 8.86795 67.134 9.72408 67.134 11.1283C67.134 12.5405 67.9122 13.3926 69.1852 13.3926ZM69.1852 12.6285C68.4389 12.6285 68.0199 12.0804 68.0199 11.1283C68.0199 10.1841 68.4389 9.63206 69.1852 9.63206C69.9275 9.63206 70.3505 10.1841 70.3505 11.1283C70.3505 12.0764 69.9275 12.6285 69.1852 12.6285Z" fill="white"/>
<path d="M73.7889 12.6565C73.322 12.6565 72.9828 12.4285 72.9828 12.0364C72.9828 11.6524 73.2541 11.4483 73.8527 11.4083L74.9143 11.3403V11.7044C74.9143 12.2445 74.4354 12.6565 73.7889 12.6565ZM73.5694 13.3806C74.1401 13.3806 74.615 13.1326 74.8744 12.6965H74.9422V13.3086H75.7683V10.3322C75.7683 9.41203 75.1537 8.86795 74.0642 8.86795C73.0785 8.86795 72.3762 9.34802 72.2884 10.0961H73.1184C73.2142 9.78809 73.5454 9.61206 74.0243 9.61206C74.611 9.61206 74.9143 9.8721 74.9143 10.3322V10.7082L73.737 10.7762C72.7034 10.8402 72.1208 11.2923 72.1208 12.0764C72.1208 12.8725 72.7313 13.3806 73.5694 13.3806Z" fill="white"/>
<path d="M78.6799 13.3806C79.2785 13.3806 79.7853 13.0966 80.0447 12.6205H80.1126V13.3086H80.9347V7.25171H80.0767V9.64407H80.0128C79.7774 9.16399 79.2745 8.87995 78.6799 8.87995C77.5825 8.87995 76.8761 9.75208 76.8761 11.1283C76.8761 12.5085 77.5745 13.3806 78.6799 13.3806ZM78.9233 9.65207C79.6417 9.65207 80.0926 10.2242 80.0926 11.1323C80.0926 12.0444 79.6457 12.6085 78.9233 12.6085C78.197 12.6085 77.762 12.0524 77.762 11.1283C77.762 10.2122 78.201 9.65207 78.9233 9.65207Z" fill="white"/>
<path d="M86.4985 13.3926C87.7676 13.3926 88.5458 12.5405 88.5458 11.1283C88.5458 9.72408 87.7636 8.86795 86.4985 8.86795C85.2295 8.86795 84.4473 9.72408 84.4473 11.1283C84.4473 12.5405 85.2255 13.3926 86.4985 13.3926ZM86.4985 12.6285C85.7523 12.6285 85.3332 12.0804 85.3332 11.1283C85.3332 10.1841 85.7523 9.63206 86.4985 9.63206C87.2408 9.63206 87.6638 10.1841 87.6638 11.1283C87.6638 12.0764 87.2408 12.6285 86.4985 12.6285Z" fill="white"/>
<path d="M89.6815 13.3086H90.5395V10.7602C90.5395 10.0801 90.9426 9.65607 91.5771 9.65607C92.2116 9.65607 92.5149 10.0041 92.5149 10.7042V13.3086H93.3729V10.4882C93.3729 9.45204 92.8382 8.86795 91.8684 8.86795C91.214 8.86795 90.783 9.15999 90.5714 9.64407H90.5076V8.95196H89.6815V13.3086Z" fill="white"/>
<path d="M97.3245 7.8678V8.97197H96.6341V9.69607H97.3245V12.1564C97.3245 12.9966 97.7037 13.3326 98.6574 13.3326C98.8251 13.3326 98.9847 13.3126 99.1244 13.2886V12.5725C99.0046 12.5845 98.9288 12.5925 98.7971 12.5925C98.3701 12.5925 98.1825 12.3925 98.1825 11.9364V9.69607H99.1244V8.97197H98.1825V7.8678H97.3245Z" fill="white"/>
<path d="M100.276 13.3086H101.134V10.7642C101.134 10.1041 101.525 9.66007 102.228 9.66007C102.834 9.66007 103.157 10.0121 103.157 10.7082V13.3086H104.015V10.4962C104.015 9.46004 103.445 8.87195 102.519 8.87195C101.864 8.87195 101.405 9.16399 101.194 9.65207H101.126V7.25171H100.276V13.3086Z" fill="white"/>
<path d="M107.111 9.60006C107.745 9.60006 108.16 10.0441 108.18 10.7282H105.985C106.033 10.0481 106.476 9.60006 107.111 9.60006ZM108.176 12.1324C108.016 12.4725 107.661 12.6605 107.143 12.6605C106.456 12.6605 106.013 12.1764 105.985 11.4123V11.3643H109.054V11.0643C109.054 9.69607 108.324 8.86795 107.115 8.86795C105.889 8.86795 105.111 9.75208 105.111 11.1443C105.111 12.5365 105.873 13.3926 107.119 13.3926C108.112 13.3926 108.807 12.9126 109.002 12.1324H108.176Z" fill="white"/>
<path d="M32.1001 18.7083C32.1209 17.088 32.989 15.5548 34.366 14.7061C33.4973 13.4623 32.0422 12.6738 30.5284 12.6263C28.9138 12.4564 27.3484 13.5949 26.5256 13.5949C25.6869 13.5949 24.4201 12.6432 23.056 12.6713C21.2779 12.7289 19.6202 13.7423 18.7551 15.3007C16.8955 18.5283 18.2826 23.2717 20.064 25.8806C20.9552 27.1582 21.9968 28.5852 23.3597 28.5346C24.6934 28.4791 25.1915 27.682 26.8014 27.682C28.3964 27.682 28.8637 28.5346 30.2543 28.5024C31.6854 28.4791 32.5871 27.2192 33.447 25.9296C34.0874 25.0193 34.5801 24.0133 34.907 22.9487C33.2252 22.2356 32.1021 20.5389 32.1001 18.7083Z" fill="white"/>
<path d="M29.4735 10.9105C30.2538 9.97149 30.6383 8.7645 30.5452 7.5459C29.353 7.67142 28.2518 8.24259 27.461 9.14561C26.6877 10.0279 26.2852 11.2137 26.3613 12.3857C27.5539 12.398 28.7262 11.8423 29.4735 10.9105Z" fill="white"/>
</svg>
