<svg width="166" height="72" viewBox="0 0 166 72" fill="none" xmlns="http://www.w3.org/2000/svg">
<path d="M12.5013 41.4023C12.5013 42.7642 12.0418 43.7024 11.1228 44.2169C10.6792 44.459 10.2197 44.5649 9.74437 44.5347H7.98563V8.80706H9.74437C10.2197 8.7768 10.6792 8.88272 11.1228 9.12484C12.0418 9.63934 12.5013 10.5776 12.5013 11.9395V41.4023ZM20.3443 10.7591C20.3443 9.91173 20.3285 9.18537 20.2968 8.58008C20.2017 7.00631 19.9799 5.72005 19.6313 4.72131C18.744 2.2396 16.7476 0.998739 13.6421 0.998739H0V70.9559H7.98563V52.343H13.6421C16.7476 52.343 18.744 51.1021 19.6313 48.6204C19.9799 47.652 20.2017 46.3657 20.2968 44.7617C20.3285 44.1564 20.3443 43.43 20.3443 42.5826V10.7591Z" fill="#130F26"/>
<path d="M31.6595 9.35183C31.6595 8.65574 31.9288 8.06557 32.4675 7.58134C32.9746 7.06683 33.5925 6.80958 34.3214 6.80958C35.0502 6.80958 35.684 7.06683 36.2227 7.58134C36.7297 8.06557 36.9832 8.65574 36.9832 9.35183V62.6482C36.9832 63.3443 36.7297 63.9344 36.2227 64.4187C35.684 64.9029 35.0502 65.145 34.3214 65.145C33.5925 65.145 32.9746 64.9029 32.4675 64.4187C31.9288 63.9344 31.6595 63.3443 31.6595 62.6482V9.35183ZM34.3214 0C31.3743 0 28.8392 0.998739 26.716 2.99622C24.6245 5.02396 23.5788 7.44515 23.5788 10.2598V61.7402C23.5788 64.5549 24.6245 66.976 26.716 69.0038C28.8392 71.0013 31.3743 72 34.3214 72C37.3001 72 39.8352 71.0013 41.9267 69.0038C44.0499 66.976 45.1115 64.5549 45.1115 61.7402V10.2598C45.1115 7.44515 44.0499 5.02396 41.9267 2.99622C39.8352 0.998739 37.3001 0 34.3214 0Z" fill="#130F26"/>
<path d="M59.136 0.0907945C56.1889 0.0907945 53.6538 1.10467 51.5307 3.13241C49.4392 5.12989 48.3934 7.53594 48.3934 10.3506V29.826C48.3934 32.4287 49.3124 34.7137 51.1504 36.681C53.2735 38.9508 55.8562 40.0858 58.8983 40.0858H59.4212C61.0057 40.0858 61.7979 40.9332 61.7979 42.628V62.6482C61.7979 63.3443 61.5444 63.9344 61.0373 64.4187C60.4986 64.9029 59.8649 65.145 59.136 65.145C58.4072 65.145 57.7892 64.9029 57.2822 64.4187C56.7752 63.9344 56.5217 63.3443 56.5217 62.6482V50.462H48.3934V62.739C48.6469 65.3417 49.8036 67.5359 51.8634 69.3216C53.9232 71.1072 56.3474 72 59.136 72C61.9563 72 64.3964 71.1072 66.4562 69.3216C68.516 67.5359 69.6726 65.3266 69.9261 62.6936V62.6482V42.5826C69.9895 40.7364 69.6409 38.9054 68.8804 37.0895C68.2149 35.4855 67.2801 34.2144 66.0759 33.2762C64.5548 32.1261 62.6693 31.5511 60.4194 31.5511H58.8983C58.2012 31.5511 57.6149 31.309 57.1396 30.8247C56.7276 30.3405 56.5217 29.7503 56.5217 29.0542V9.48802C56.5217 8.76166 56.7752 8.15637 57.2822 7.67213C57.7892 7.18789 58.4072 6.94578 59.136 6.94578C59.8649 6.94578 60.4986 7.18789 61.0373 7.67213C61.5444 8.15637 61.7979 8.76166 61.7979 9.48802V21.7196H69.9261V10.3506C69.9261 7.53594 68.8645 5.12989 66.7414 3.13241C64.6499 1.10467 62.1148 0.0907945 59.136 0.0907945Z" fill="#130F26"/>
<path d="M90.9381 0.998739H72.3525V3.30172C72.3525 6.24195 74.736 8.62547 77.6762 8.62547V66.9868C77.6762 69.1789 79.4532 70.9559 81.6453 70.9559C83.8373 70.9559 85.6143 69.1789 85.6143 66.9868V8.62547C88.5546 8.62547 90.9381 6.24195 90.9381 3.30172V0.998739Z" fill="#130F26"/>
<path d="M102.206 8.80706H103.964C104.44 8.7768 104.899 8.88272 105.343 9.12484C106.262 9.63934 106.721 10.5776 106.721 11.9395V34.3203C106.721 35.7125 106.262 36.6507 105.343 37.1349C104.899 37.377 104.44 37.483 103.964 37.4527H102.206V8.80706ZM94.2201 0.998739V70.9559H102.206V45.4426H103.537C103.98 45.4124 104.44 45.5183 104.915 45.7604C105.327 45.9723 105.644 46.2749 105.866 46.6683C106.151 47.1828 106.294 47.8184 106.294 48.575V70.9559H114.137V50.3001V48.6658C114.105 47.4855 114.026 46.5019 113.899 45.715C113.582 43.6267 112.869 42.1135 111.76 41.1753C112.679 39.9344 113.408 38.4968 113.946 36.8625C114.358 35.5006 114.564 34.29 114.564 33.2308V10.7591C114.564 9.91173 114.549 9.18537 114.517 8.58008C114.422 7.00631 114.2 5.72005 113.851 4.72131C112.964 2.2396 110.968 0.998739 107.862 0.998739H94.2201Z" fill="#130F26"/>
<path d="M125.88 9.35183C125.88 8.65574 126.149 8.06557 126.688 7.58134C127.195 7.06683 127.813 6.80958 128.541 6.80958C129.27 6.80958 129.904 7.06683 130.443 7.58134C130.95 8.06557 131.203 8.65574 131.203 9.35183V62.6482C131.203 63.3443 130.95 63.9344 130.443 64.4187C129.904 64.9029 129.27 65.145 128.541 65.145C127.813 65.145 127.195 64.9029 126.688 64.4187C126.149 63.9344 125.88 63.3443 125.88 62.6482V9.35183ZM128.541 0C125.594 0 123.059 0.998739 120.936 2.99622C118.845 5.02396 117.799 7.44515 117.799 10.2598V61.7402C117.799 64.5549 118.845 66.976 120.936 69.0038C123.059 71.0013 125.594 72 128.541 72C131.52 72 134.055 71.0013 136.147 69.0038C138.27 66.976 139.332 64.5549 139.332 61.7402V10.2598C139.332 7.44515 138.27 5.02396 136.147 2.99622C134.055 0.998739 131.52 0 128.541 0Z" fill="#130F26"/>
<path d="M166 0.998739H158.014L153.118 28.5095L148.222 0.998739H140.237L149.078 46.9861H149.126V70.9559H157.111V46.9861H157.159L166 0.998739Z" fill="#130F26"/>
<path fill-rule="evenodd" clip-rule="evenodd" d="M88.6992 56.8664L75.7817 63.9892L74.8633 62.47L87.7809 55.3472L88.6992 56.8664Z" fill="white"/>
<path fill-rule="evenodd" clip-rule="evenodd" d="M88.6992 51.2529L75.7817 58.3757L74.8633 56.8565L87.7809 49.7337L88.6992 51.2529Z" fill="white"/>
<path fill-rule="evenodd" clip-rule="evenodd" d="M88.6992 45.6394L75.7817 52.7622L74.8633 51.243L87.7809 44.1202L88.6992 45.6394Z" fill="white"/>
<path fill-rule="evenodd" clip-rule="evenodd" d="M88.6992 40.0259L75.7817 47.1487L74.8633 45.6295L87.7809 38.5067L88.6992 40.0259Z" fill="white"/>
<path fill-rule="evenodd" clip-rule="evenodd" d="M88.6992 34.4124L75.7817 41.5352L74.8633 40.016L87.7809 32.8932L88.6992 34.4124Z" fill="white"/>
<path fill-rule="evenodd" clip-rule="evenodd" d="M88.6992 28.7989L75.7817 35.9217L74.8633 34.4025L87.7809 27.2797L88.6992 28.7989Z" fill="white"/>
<path fill-rule="evenodd" clip-rule="evenodd" d="M88.6992 23.1854L75.7817 30.3082L74.8633 28.789L87.7809 21.6662L88.6992 23.1854Z" fill="white"/>
<path fill-rule="evenodd" clip-rule="evenodd" d="M88.6992 17.5719L75.7817 24.6947L74.8633 23.1755L87.7809 16.0527L88.6992 17.5719Z" fill="white"/>
</svg>
