<svg width="24" height="24" viewBox="0 0 24 24" fill="none" xmlns="http://www.w3.org/2000/svg">
<path fill-rule="evenodd" clip-rule="evenodd" d="M3 6.5C3 3.87479 3.02811 3 6.5 3C9.97189 3 10 3.87479 10 6.5C10 9.12521 10.0111 10 6.5 10C2.98893 10 3 9.12521 3 6.5Z" stroke="#FECA07" stroke-width="2" stroke-linecap="round" stroke-linejoin="round"/>
<path fill-rule="evenodd" clip-rule="evenodd" d="M14.001 6.5C14.001 3.87479 14.0291 3 17.501 3C20.9729 3 21.001 3.87479 21.001 6.5C21.001 9.12521 21.012 10 17.501 10C13.9899 10 14.001 9.12521 14.001 6.5Z" stroke="#FECA07" stroke-width="2" stroke-linecap="round" stroke-linejoin="round"/>
<path fill-rule="evenodd" clip-rule="evenodd" d="M3 17.5C3 14.8748 3.02811 14 6.5 14C9.97189 14 10 14.8748 10 17.5C10 20.1252 10.0111 21 6.5 21C2.98893 21 3 20.1252 3 17.5Z" stroke="#FECA07" stroke-width="2" stroke-linecap="round" stroke-linejoin="round"/>
<path fill-rule="evenodd" clip-rule="evenodd" d="M14.001 17.5C14.001 14.8748 14.0291 14 17.501 14C20.9729 14 21.001 14.8748 21.001 17.5C21.001 20.1252 21.012 21 17.501 21C13.9899 21 14.001 20.1252 14.001 17.5Z" stroke="#FECA07" stroke-width="2" stroke-linecap="round" stroke-linejoin="round"/>
</svg>
