<svg width="60" height="30" viewBox="0 0 60 30" fill="none" xmlns="http://www.w3.org/2000/svg">
<path d="M0 4C0 1.79086 1.79086 0 4 0H60V26C60 28.2091 58.2091 30 56 30H0V4Z" fill="#FECA07"/>
<path d="M24.791 11.708H21.7422V20H19.6914V11.708H16.6836V10.0469H24.791V11.708ZM33.9512 15.249C33.9512 16.2288 33.778 17.0879 33.4316 17.8262C33.0853 18.5645 32.5885 19.1341 31.9414 19.5352C31.2988 19.9362 30.5605 20.1367 29.7266 20.1367C28.9017 20.1367 28.1657 19.9385 27.5186 19.542C26.8714 19.1455 26.3701 18.5804 26.0146 17.8467C25.6592 17.1084 25.4792 16.2607 25.4746 15.3037V14.8115C25.4746 13.8317 25.6501 12.9704 26.001 12.2275C26.3564 11.4801 26.8555 10.9082 27.498 10.5117C28.1452 10.1107 28.8835 9.91016 29.7129 9.91016C30.5423 9.91016 31.2783 10.1107 31.9209 10.5117C32.568 10.9082 33.0671 11.4801 33.418 12.2275C33.7734 12.9704 33.9512 13.8294 33.9512 14.8047V15.249ZM31.873 14.7979C31.873 13.7542 31.6862 12.9613 31.3125 12.4189C30.9388 11.8766 30.4056 11.6055 29.7129 11.6055C29.0247 11.6055 28.4938 11.8743 28.1201 12.4121C27.7464 12.9453 27.5573 13.7292 27.5527 14.7637V15.249C27.5527 16.2653 27.7396 17.0537 28.1133 17.6143C28.487 18.1748 29.0247 18.4551 29.7266 18.4551C30.4147 18.4551 30.9434 18.1862 31.3125 17.6484C31.6816 17.1061 31.8685 16.3177 31.873 15.2832V14.7979ZM37.4922 16.4932V20H35.4414V10.0469H39.3242C40.0716 10.0469 40.7279 10.1836 41.293 10.457C41.8626 10.7305 42.3001 11.1201 42.6055 11.626C42.9108 12.1273 43.0635 12.6992 43.0635 13.3418C43.0635 14.3171 42.7285 15.0872 42.0586 15.6523C41.3932 16.2129 40.4704 16.4932 39.29 16.4932H37.4922ZM37.4922 14.832H39.3242C39.8665 14.832 40.279 14.7044 40.5615 14.4492C40.8486 14.194 40.9922 13.8294 40.9922 13.3555C40.9922 12.8678 40.8486 12.4736 40.5615 12.1729C40.2744 11.8721 39.8779 11.7171 39.3721 11.708H37.4922V14.832Z" fill="#1F2022"/>
</svg>
