<svg width="39" height="39" viewBox="0 0 39 39" fill="none" xmlns="http://www.w3.org/2000/svg">
<path d="M33.15 8.775C33.15 10.3904 31.8404 11.7 30.225 11.7C28.6096 11.7 27.3 10.3904 27.3 8.775C27.3 7.15957 28.6096 5.85 30.225 5.85C31.8404 5.85 33.15 7.15957 33.15 8.775Z" fill="url(#paint0_linear_1_90)"/>
<path fill-rule="evenodd" clip-rule="evenodd" d="M19.5 29.25C24.8848 29.25 29.25 24.8848 29.25 19.5C29.25 14.1152 24.8848 9.75 19.5 9.75C14.1152 9.75 9.75 14.1152 9.75 19.5C9.75 24.8848 14.1152 29.25 19.5 29.25ZM19.5 25.35C22.7309 25.35 25.35 22.7309 25.35 19.5C25.35 16.2691 22.7309 13.65 19.5 13.65C16.2691 13.65 13.65 16.2691 13.65 19.5C13.65 22.7309 16.2691 25.35 19.5 25.35Z" fill="url(#paint1_linear_1_90)"/>
<path fill-rule="evenodd" clip-rule="evenodd" d="M0 18.72C0 12.1674 0 8.89108 1.27522 6.38831C2.39694 4.18681 4.18681 2.39694 6.38831 1.27522C8.89108 0 12.1674 0 18.72 0H20.28C26.8326 0 30.1089 0 32.6117 1.27522C34.8132 2.39694 36.6031 4.18681 37.7248 6.38831C39 8.89108 39 12.1674 39 18.72V20.28C39 26.8326 39 30.1089 37.7248 32.6117C36.6031 34.8132 34.8132 36.6031 32.6117 37.7248C30.1089 39 26.8326 39 20.28 39H18.72C12.1674 39 8.89108 39 6.38831 37.7248C4.18681 36.6031 2.39694 34.8132 1.27522 32.6117C0 30.1089 0 26.8326 0 20.28V18.72ZM18.72 3.9H20.28C23.6207 3.9 25.8916 3.90303 27.647 4.04645C29.3568 4.18615 30.2312 4.43936 30.8411 4.75015C32.3088 5.49796 33.502 6.69121 34.2499 8.15887C34.5606 8.76883 34.8139 9.64323 34.9535 11.353C35.097 13.1084 35.1 15.3793 35.1 18.72V20.28C35.1 23.6207 35.097 25.8916 34.9535 27.647C34.8139 29.3568 34.5606 30.2312 34.2499 30.8411C33.502 32.3088 32.3088 33.502 30.8411 34.2499C30.2312 34.5606 29.3568 34.8139 27.647 34.9535C25.8916 35.097 23.6207 35.1 20.28 35.1H18.72C15.3793 35.1 13.1084 35.097 11.353 34.9535C9.64323 34.8139 8.76883 34.5606 8.15887 34.2499C6.69121 33.502 5.49796 32.3088 4.75015 30.8411C4.43936 30.2312 4.18615 29.3568 4.04645 27.647C3.90303 25.8916 3.9 23.6207 3.9 20.28V18.72C3.9 15.3793 3.90303 13.1084 4.04645 11.353C4.18615 9.64323 4.43936 8.76883 4.75015 8.15887C5.49796 6.69121 6.69121 5.49796 8.15887 4.75015C8.76883 4.43936 9.64323 4.18615 11.353 4.04645C13.1084 3.90303 15.3793 3.9 18.72 3.9Z" fill="url(#paint2_linear_1_90)"/>
<defs>
<linearGradient id="paint0_linear_1_90" x1="2.52973" y1="3.47838" x2="37.9459" y2="39.7378" gradientUnits="userSpaceOnUse">
<stop stop-color="#416ADD"/>
<stop offset="0.260417" stop-color="#DA3F66"/>
<stop offset="0.630208" stop-color="#F88035"/>
<stop offset="1" stop-color="#D73C70"/>
</linearGradient>
<linearGradient id="paint1_linear_1_90" x1="2.52973" y1="3.47838" x2="37.9459" y2="39.7378" gradientUnits="userSpaceOnUse">
<stop stop-color="#416ADD"/>
<stop offset="0.260417" stop-color="#DA3F66"/>
<stop offset="0.630208" stop-color="#F88035"/>
<stop offset="1" stop-color="#D73C70"/>
</linearGradient>
<linearGradient id="paint2_linear_1_90" x1="2.52973" y1="3.47838" x2="37.9459" y2="39.7378" gradientUnits="userSpaceOnUse">
<stop stop-color="#416ADD"/>
<stop offset="0.260417" stop-color="#DA3F66"/>
<stop offset="0.630208" stop-color="#F88035"/>
<stop offset="1" stop-color="#D73C70"/>
</linearGradient>
</defs>
</svg>
