<svg width="19" height="18" viewBox="0 0 19 18" fill="none" xmlns="http://www.w3.org/2000/svg">
<path fill-rule="evenodd" clip-rule="evenodd" d="M10.5414 1.39036L12.2904 4.88433C12.4618 5.22734 12.7926 5.46519 13.1763 5.52022L17.0887 6.08339C18.0554 6.22295 18.44 7.39449 17.7405 8.06576L14.9113 10.7843C14.6332 11.0516 14.5067 11.4359 14.5724 11.8133L15.2401 15.6513C15.4046 16.6007 14.3941 17.325 13.5301 16.8759L10.0332 15.0625C9.69038 14.8846 9.2798 14.8846 8.93599 15.0625L5.43912 16.8759C4.57512 17.325 3.56462 16.6007 3.73005 15.6513L4.39674 11.8133C4.46251 11.4359 4.33595 11.0516 4.05791 10.7843L1.22873 8.06576C0.529153 7.39449 0.913818 6.22295 1.88047 6.08339L5.79289 5.52022C6.17656 5.46519 6.50841 5.22734 6.67982 4.88433L8.42776 1.39036C8.86025 0.526454 10.1089 0.526454 10.5414 1.39036Z" stroke="#1F2022" stroke-linecap="round" stroke-linejoin="round"/>
</svg>
