<svg width="131" height="39" viewBox="0 0 131 39" fill="none" xmlns="http://www.w3.org/2000/svg">
<rect width="131" height="39" rx="5" fill="black"/>
<path d="M66.1171 21.2072C63.8348 21.2072 61.9746 22.9515 61.9746 25.3539C61.9746 27.7417 63.8348 29.5006 66.1171 29.5006C68.4004 29.5006 70.2606 27.7417 70.2606 25.3539C70.2596 22.9515 68.3995 21.2072 66.1171 21.2072ZM66.1171 27.8685C64.8663 27.8685 63.7883 26.832 63.7883 25.3549C63.7883 23.8622 64.8673 22.8413 66.1171 22.8413C67.368 22.8413 68.446 23.8622 68.446 25.3549C68.446 26.8311 67.368 27.8685 66.1171 27.8685ZM57.0791 21.2072C54.7968 21.2072 52.9366 22.9515 52.9366 25.3539C52.9366 27.7417 54.7968 29.5006 57.0791 29.5006C59.3624 29.5006 61.2226 27.7417 61.2226 25.3539C61.2226 22.9515 59.3624 21.2072 57.0791 21.2072ZM57.0791 27.8685C55.8283 27.8685 54.7502 26.832 54.7502 25.3549C54.7502 23.8622 55.8293 22.8413 57.0791 22.8413C58.3299 22.8413 59.408 23.8622 59.408 25.3549C59.409 26.8311 58.3299 27.8685 57.0791 27.8685ZM46.3293 22.4806V24.2395H50.5194C50.3942 25.2291 50.0662 25.9516 49.5655 26.4537C48.9561 27.066 48.0023 27.7417 46.3293 27.7417C43.7501 27.7417 41.7337 25.6523 41.7337 23.0607C41.7337 20.4692 43.7501 18.3797 46.3293 18.3797C47.7209 18.3797 48.7368 18.9296 49.4869 19.6365L50.7222 18.3954C49.6742 17.3901 48.2837 16.6209 46.3293 16.6209C42.7962 16.6209 39.8259 19.5108 39.8259 23.0607C39.8259 26.6107 42.7962 29.5006 46.3293 29.5006C48.2361 29.5006 49.6752 28.8717 50.7998 27.6939C51.9565 26.5317 52.3165 24.8976 52.3165 23.5784C52.3165 23.1709 52.2855 22.7936 52.2224 22.4796H46.3293V22.4806ZM90.2949 23.8466C89.9514 22.9203 88.9034 21.2072 86.7618 21.2072C84.6357 21.2072 82.8686 22.8882 82.8686 25.3539C82.8686 27.6783 84.6202 29.5006 86.9646 29.5006C88.8558 29.5006 89.9504 28.3384 90.4045 27.6627L88.9975 26.7199C88.5288 27.4112 87.8874 27.8665 86.9646 27.8665C86.0427 27.8665 85.3858 27.4424 84.9637 26.6097L90.4822 24.3165L90.2949 23.8466ZM84.6667 25.2291C84.6202 23.6262 85.902 22.8102 86.8248 22.8102C87.5439 22.8102 88.1533 23.1719 88.3571 23.6896L84.6667 25.2291ZM80.1807 29.25H81.9934V17.0616H80.1807V29.25ZM77.2094 22.1345H77.1473C76.7408 21.647 75.9586 21.2072 74.9747 21.2072C72.9107 21.2072 71.0195 23.0295 71.0195 25.3705C71.0195 27.6949 72.9107 29.5016 74.9747 29.5016C75.9596 29.5016 76.7408 29.0619 77.1473 28.5597H77.2094V29.1564C77.2094 30.7428 76.3652 31.591 75.0057 31.591C73.8956 31.591 73.2076 30.7905 72.9262 30.1149L71.3474 30.7749C71.8006 31.8737 73.0039 33.2251 75.0057 33.2251C77.1318 33.2251 78.9299 31.9683 78.9299 28.9049V21.4598H77.2104V22.1345H77.2094ZM75.1309 27.8685C73.8801 27.8685 72.8331 26.8155 72.8331 25.3705C72.8331 23.909 73.8801 22.8413 75.1309 22.8413C76.3652 22.8413 77.3346 23.909 77.3346 25.3705C77.3346 26.8155 76.3652 27.8685 75.1309 27.8685ZM98.7895 17.0616H94.451V29.25H96.2607V24.6324H98.7885C100.795 24.6324 102.769 23.1729 102.769 20.8475C102.769 18.5221 100.796 17.0616 98.7895 17.0616ZM98.8361 22.9359H96.2607V18.7581H98.8361C100.19 18.7581 100.958 19.8842 100.958 20.8475C100.958 21.7913 100.19 22.9359 98.8361 22.9359ZM110.026 21.1858C108.715 21.1858 107.358 21.7659 106.796 23.052L108.403 23.7257C108.746 23.0519 109.387 22.8316 110.057 22.8316C110.994 22.8316 111.946 23.3961 111.961 24.3994V24.5252C111.633 24.337 110.931 24.0552 110.073 24.0552C108.341 24.0552 106.577 25.0117 106.577 26.7989C106.577 28.4301 107.997 29.4801 109.589 29.4801C110.806 29.4801 111.477 28.9312 111.898 28.2877H111.96V29.2286H113.709V24.5554C113.71 22.3929 112.101 21.1858 110.026 21.1858ZM109.807 27.8655C109.215 27.8655 108.387 27.5672 108.387 26.8301C108.387 25.8892 109.418 25.5284 110.308 25.5284C111.103 25.5284 111.478 25.701 111.961 25.936C111.821 27.066 110.853 27.8655 109.807 27.8655ZM120.077 21.452L118.001 26.7365H117.939L115.785 21.452H113.834L117.064 28.8376L115.223 32.9463H117.111L122.09 21.452H120.077ZM103.768 29.25H105.578V17.0616H103.768V29.25Z" fill="white"/>
<path d="M46.0131 9.98686C46.0131 10.8039 45.7724 11.4542 45.2902 11.9398C44.7429 12.517 44.0287 12.8056 43.1515 12.8056C42.3111 12.8056 41.596 12.5131 41.0089 11.9281C40.4209 11.3421 40.1268 10.6167 40.1268 9.75091C40.1268 8.88414 40.4209 8.15874 41.0089 7.57374C41.596 6.98776 42.3111 6.69526 43.1515 6.69526C43.5687 6.69526 43.9676 6.77716 44.346 6.93999C44.7254 7.10379 45.0291 7.32121 45.2562 7.59324L44.7448 8.10804C44.3596 7.64491 43.8288 7.41384 43.1505 7.41384C42.5372 7.41384 42.0074 7.63029 41.5601 8.06319C41.1127 8.49609 40.8895 9.05866 40.8895 9.74994C40.8895 10.4412 41.1127 11.0038 41.5601 11.4367C42.0074 11.8696 42.5372 12.086 43.1505 12.086C43.8007 12.086 44.3431 11.8686 44.7768 11.4328C45.0583 11.1491 45.2213 10.7542 45.2649 10.2482H43.1505V9.54519H45.9714C46.0005 9.69826 46.0131 9.84549 46.0131 9.98686Z" fill="white"/>
<path d="M50.4866 7.54357H47.8355V9.39802H50.2265V10.101H47.8355V11.9554H50.4866V12.675H47.0874V6.82499H50.4866V7.54357Z" fill="white"/>
<path d="M53.6412 12.675H52.893V7.54357H51.2667V6.82499H55.2675V7.54357H53.6412V12.675Z" fill="white"/>
<path d="M58.1621 12.675V6.82499H58.9102V12.675H58.1621Z" fill="white"/>
<path d="M62.2281 12.675H61.4799V7.54357H59.8536V6.82499H63.8544V7.54357H62.2281V12.675Z" fill="white"/>
<path d="M71.428 11.9194C70.8554 12.5102 70.1441 12.8056 69.2931 12.8056C68.4421 12.8056 67.7308 12.5102 67.1593 11.9194C66.5868 11.3285 66.3015 10.6051 66.3015 9.74998C66.3015 8.89491 66.5868 8.17146 67.1593 7.58061C67.7308 6.98976 68.4421 6.69336 69.2931 6.69336C70.1393 6.69336 70.8496 6.99073 71.4241 7.58451C71.9985 8.17828 72.2858 8.89978 72.2858 9.74998C72.2858 10.6051 71.9995 11.3285 71.428 11.9194ZM67.7114 11.4289C68.1423 11.8677 68.6692 12.0861 69.2931 12.0861C69.9171 12.0861 70.445 11.8667 70.8748 11.4289C71.3057 10.9902 71.5221 10.4305 71.5221 9.74998C71.5221 9.06943 71.3057 8.50978 70.8748 8.07103C70.445 7.63228 69.9171 7.41388 69.2931 7.41388C68.6692 7.41388 68.1423 7.63326 67.7114 8.07103C67.2816 8.50978 67.0652 9.06943 67.0652 9.74998C67.0652 10.4305 67.2816 10.9902 67.7114 11.4289Z" fill="white"/>
<path d="M73.3357 12.675V6.82499H74.2459L77.0755 11.3753H77.1075L77.0755 10.2482V6.82499H77.8237V12.675H77.0425L74.0819 7.90334H74.0499L74.0819 9.03044V12.675H73.3357Z" fill="white"/>
<path d="M46.0131 9.98686C46.0131 10.8039 45.7724 11.4542 45.2902 11.9398C44.7429 12.517 44.0287 12.8056 43.1515 12.8056C42.3111 12.8056 41.596 12.5131 41.0089 11.9281C40.4209 11.3421 40.1268 10.6167 40.1268 9.75091C40.1268 8.88414 40.4209 8.15874 41.0089 7.57374C41.596 6.98776 42.3111 6.69526 43.1515 6.69526C43.5687 6.69526 43.9676 6.77716 44.346 6.93999C44.7254 7.10379 45.0291 7.32121 45.2562 7.59324L44.7448 8.10804C44.3596 7.64491 43.8288 7.41384 43.1505 7.41384C42.5372 7.41384 42.0074 7.63029 41.5601 8.06319C41.1127 8.49609 40.8895 9.05866 40.8895 9.74994C40.8895 10.4412 41.1127 11.0038 41.5601 11.4367C42.0074 11.8696 42.5372 12.086 43.1505 12.086C43.8007 12.086 44.3431 11.8686 44.7768 11.4328C45.0583 11.1491 45.2213 10.7542 45.2649 10.2482H43.1505V9.54519H45.9714C46.0005 9.69826 46.0131 9.84549 46.0131 9.98686Z" stroke="white" stroke-width="0.2" stroke-miterlimit="10"/>
<path d="M50.4866 7.54357H47.8355V9.39802H50.2265V10.101H47.8355V11.9554H50.4866V12.675H47.0874V6.82499H50.4866V7.54357Z" stroke="white" stroke-width="0.2" stroke-miterlimit="10"/>
<path d="M53.6412 12.675H52.893V7.54357H51.2667V6.82499H55.2675V7.54357H53.6412V12.675Z" stroke="white" stroke-width="0.2" stroke-miterlimit="10"/>
<path d="M58.1621 12.675V6.82499H58.9102V12.675H58.1621Z" stroke="white" stroke-width="0.2" stroke-miterlimit="10"/>
<path d="M62.2281 12.675H61.4799V7.54357H59.8536V6.82499H63.8544V7.54357H62.2281V12.675Z" stroke="white" stroke-width="0.2" stroke-miterlimit="10"/>
<path d="M71.428 11.9194C70.8554 12.5102 70.1441 12.8056 69.2931 12.8056C68.4421 12.8056 67.7308 12.5102 67.1593 11.9194C66.5868 11.3285 66.3015 10.6051 66.3015 9.74998C66.3015 8.89491 66.5868 8.17146 67.1593 7.58061C67.7308 6.98976 68.4421 6.69336 69.2931 6.69336C70.1393 6.69336 70.8496 6.99073 71.4241 7.58451C71.9985 8.17828 72.2858 8.89978 72.2858 9.74998C72.2858 10.6051 71.9995 11.3285 71.428 11.9194ZM67.7114 11.4289C68.1423 11.8677 68.6692 12.0861 69.2931 12.0861C69.9171 12.0861 70.445 11.8667 70.8748 11.4289C71.3057 10.9902 71.5221 10.4305 71.5221 9.74998C71.5221 9.06943 71.3057 8.50978 70.8748 8.07103C70.445 7.63228 69.9171 7.41388 69.2931 7.41388C68.6692 7.41388 68.1423 7.63326 67.7114 8.07103C67.2816 8.50978 67.0652 9.06943 67.0652 9.74998C67.0652 10.4305 67.2816 10.9902 67.7114 11.4289Z" stroke="white" stroke-width="0.2" stroke-miterlimit="10"/>
<path d="M73.3357 12.675V6.82499H74.2459L77.0755 11.3753H77.1075L77.0755 10.2482V6.82499H77.8237V12.675H77.0425L74.0819 7.90334H74.0499L74.0819 9.03044V12.675H73.3357Z" stroke="white" stroke-width="0.2" stroke-miterlimit="10"/>
<g filter="url(#filter0_ii_1_97)">
<path d="M10.1268 7.3495C9.84439 7.6498 9.67749 8.11585 9.67749 8.71937V30.2825C9.67749 30.887 9.84439 31.352 10.1268 31.6523L10.1986 31.7225L22.2205 19.6433V19.5009V19.3586L10.1986 7.27832L10.1268 7.3495Z" fill="url(#paint0_linear_1_97)"/>
<path d="M26.2272 23.671L22.2206 19.6432V19.5009V19.3585L26.2282 15.3318L26.3185 15.3835L31.0665 18.094C32.4221 18.8681 32.4221 20.1346 31.0665 20.9098L26.3185 23.6203L26.2272 23.671Z" fill="url(#paint1_linear_1_97)"/>
<g filter="url(#filter1_i_1_97)">
<path d="M26.3184 23.6194L22.2196 19.501L10.1268 31.6524C10.5732 32.1282 11.3117 32.1867 12.1433 31.7129L26.3184 23.6194Z" fill="url(#paint2_linear_1_97)"/>
</g>
<path d="M26.3184 15.3826L12.1433 7.29008C11.3117 6.81525 10.5732 6.87473 10.1268 7.35053L22.2206 19.502L26.3184 15.3826Z" fill="url(#paint3_linear_1_97)"/>
</g>
<defs>
<filter id="filter0_ii_1_97" x="9.67749" y="6.9624" width="22.4056" height="25.0776" filterUnits="userSpaceOnUse" color-interpolation-filters="sRGB">
<feFlood flood-opacity="0" result="BackgroundImageFix"/>
<feBlend mode="normal" in="SourceGraphic" in2="BackgroundImageFix" result="shape"/>
<feColorMatrix in="SourceAlpha" type="matrix" values="0 0 0 0 0 0 0 0 0 0 0 0 0 0 0 0 0 0 127 0" result="hardAlpha"/>
<feOffset dy="-0.15"/>
<feComposite in2="hardAlpha" operator="arithmetic" k2="-1" k3="1"/>
<feColorMatrix type="matrix" values="0 0 0 0 0 0 0 0 0 0 0 0 0 0 0 0 0 0 0.12 0"/>
<feBlend mode="normal" in2="shape" result="effect1_innerShadow_1_97"/>
<feColorMatrix in="SourceAlpha" type="matrix" values="0 0 0 0 0 0 0 0 0 0 0 0 0 0 0 0 0 0 127 0" result="hardAlpha"/>
<feOffset dy="0.15"/>
<feComposite in2="hardAlpha" operator="arithmetic" k2="-1" k3="1"/>
<feColorMatrix type="matrix" values="0 0 0 0 1 0 0 0 0 1 0 0 0 0 1 0 0 0 0.25 0"/>
<feBlend mode="normal" in2="effect1_innerShadow_1_97" result="effect2_innerShadow_1_97"/>
</filter>
<filter id="filter1_i_1_97" x="10.1268" y="19.501" width="16.1917" height="12.5391" filterUnits="userSpaceOnUse" color-interpolation-filters="sRGB">
<feFlood flood-opacity="0" result="BackgroundImageFix"/>
<feBlend mode="normal" in="SourceGraphic" in2="BackgroundImageFix" result="shape"/>
<feColorMatrix in="SourceAlpha" type="matrix" values="0 0 0 0 0 0 0 0 0 0 0 0 0 0 0 0 0 0 127 0" result="hardAlpha"/>
<feOffset dy="-0.15"/>
<feComposite in2="hardAlpha" operator="arithmetic" k2="-1" k3="1"/>
<feColorMatrix type="matrix" values="0 0 0 0 0 0 0 0 0 0 0 0 0 0 0 0 0 0 0.08 0"/>
<feBlend mode="normal" in2="shape" result="effect1_innerShadow_1_97"/>
</filter>
<linearGradient id="paint0_linear_1_97" x1="21.1548" y1="8.49122" x2="4.79257" y2="24.7758" gradientUnits="userSpaceOnUse">
<stop stop-color="#00A0FF"/>
<stop offset="0.0066" stop-color="#00A1FF"/>
<stop offset="0.2601" stop-color="#00BEFF"/>
<stop offset="0.5122" stop-color="#00D2FF"/>
<stop offset="0.7604" stop-color="#00DFFF"/>
<stop offset="1" stop-color="#00E3FF"/>
</linearGradient>
<linearGradient id="paint1_linear_1_97" x1="32.8311" y1="19.5009" x2="9.35211" y2="19.5009" gradientUnits="userSpaceOnUse">
<stop stop-color="#FFE000"/>
<stop offset="0.4087" stop-color="#FFBD00"/>
<stop offset="0.7754" stop-color="#FFA500"/>
<stop offset="1" stop-color="#FF9C00"/>
</linearGradient>
<linearGradient id="paint2_linear_1_97" x1="24.0925" y1="21.7375" x2="1.90322" y2="43.8215" gradientUnits="userSpaceOnUse">
<stop stop-color="#FF3A44"/>
<stop offset="1" stop-color="#C31162"/>
</linearGradient>
<linearGradient id="paint3_linear_1_97" x1="7.08123" y1="0.172381" x2="16.9894" y2="10.0335" gradientUnits="userSpaceOnUse">
<stop stop-color="#32A071"/>
<stop offset="0.0685" stop-color="#2DA771"/>
<stop offset="0.4762" stop-color="#15CF74"/>
<stop offset="0.8009" stop-color="#06E775"/>
<stop offset="1" stop-color="#00F076"/>
</linearGradient>
</defs>
</svg>
