<svg width="20" height="20" viewBox="0 0 20 20" fill="none" xmlns="http://www.w3.org/2000/svg">
<path fill-rule="evenodd" clip-rule="evenodd" d="M11.1046 2.17701L12.932 5.82776C13.1111 6.18616 13.4568 6.43467 13.8577 6.49218L17.9457 7.08062C18.9557 7.22644 19.3577 8.45055 18.6267 9.15194L15.6705 11.9924C15.38 12.2718 15.2478 12.6733 15.3165 13.0676L16.0142 17.0778C16.186 18.0698 15.1301 18.8267 14.2274 18.3574L10.5736 16.4627C10.2154 16.2768 9.78639 16.2768 9.42715 16.4627L5.77337 18.3574C4.8706 18.8267 3.81476 18.0698 3.98761 17.0778L4.68421 13.0676C4.75294 12.6733 4.6207 12.2718 4.33018 11.9924L1.37405 9.15194C0.643081 8.45055 1.04501 7.22644 2.05503 7.08062L6.14302 6.49218C6.5439 6.43467 6.89064 6.18616 7.06974 5.82776L8.89611 2.17701C9.34802 1.27433 10.6527 1.27433 11.1046 2.17701Z" stroke="black" stroke-width="2" stroke-linecap="round" stroke-linejoin="round"/>
</svg>
