<svg width="19" height="18" viewBox="0 0 19 18" fill="none" xmlns="http://www.w3.org/2000/svg">
<path fill-rule="evenodd" clip-rule="evenodd" d="M10.5414 1.3903L12.2904 4.88427C12.4618 5.22728 12.7926 5.46513 13.1763 5.52016L17.0887 6.08333C18.0554 6.22289 18.44 7.39442 17.7405 8.0657L14.9113 10.7842C14.6332 11.0515 14.5067 11.4358 14.5724 11.8132L15.2401 15.6512C15.4046 16.6006 14.3941 17.325 13.5301 16.8758L10.0332 15.0625C9.69038 14.8846 9.2798 14.8846 8.93599 15.0625L5.43912 16.8758C4.57512 17.325 3.56462 16.6006 3.73005 15.6512L4.39674 11.8132C4.46251 11.4358 4.33595 11.0515 4.05791 10.7842L1.22873 8.0657C0.529153 7.39442 0.913818 6.22289 1.88047 6.08333L5.79289 5.52016C6.17656 5.46513 6.50841 5.22728 6.67982 4.88427L8.42776 1.3903C8.86025 0.526393 10.1089 0.526393 10.5414 1.3903Z" fill="#FECA07"/>
</svg>
